<?xml version="1.0" standalone="no"?>
<!DOCTYPE svg PUBLIC "-//W3C//DTD SVG 20010904//EN"
 "http://www.w3.org/TR/2001/REC-SVG-20010904/DTD/svg10.dtd">
<svg version="1.0" xmlns="http://www.w3.org/2000/svg"
 width="460.000000pt" height="460.000000pt" viewBox="0 0 460.000000 460.000000"
 preserveAspectRatio="xMidYMid meet">

<g transform="translate(0.000000,460.000000) scale(0.100000,-0.100000)"
fill="#000000" stroke="none">
<path d="M0 2300 l0 -2300 2300 0 2300 0 0 2300 0 2300 -2300 0 -2300 0 0
-2300z m2059 1711 c20 -20 48 -43 64 -51 80 -40 211 -241 222 -342 22 -187 17
-499 -10 -630 -8 -42 -14 -80 -13 -85 2 -4 -2 -21 -8 -38 -6 -16 -16 -56 -22
-88 -6 -32 -18 -72 -26 -88 -8 -16 -18 -43 -21 -61 -4 -18 -18 -44 -31 -57
-13 -13 -24 -29 -24 -36 0 -13 -28 -30 -43 -26 -5 1 -6 -3 -3 -8 3 -5 -2 -15
-11 -22 -14 -12 -16 -12 -8 1 12 21 1 11 -34 -34 -17 -21 -31 -36 -31 -32 0 3
-24 -7 -52 -23 -29 -17 -87 -44 -128 -61 -41 -17 -84 -35 -95 -40 -34 -16
-148 -40 -192 -40 -66 0 -143 20 -207 54 -32 17 -78 41 -101 53 -23 12 -59 42
-80 67 -20 25 -44 48 -54 51 -23 7 -95 137 -116 210 -10 33 -24 82 -32 109
-12 41 -30 151 -36 219 -1 9 -4 17 -8 17 -3 0 -4 11 -1 25 2 14 0 25 -6 25 -5
0 -10 12 -10 28 -1 15 -3 64 -5 110 -2 55 0 82 7 82 6 0 5 4 -2 9 -11 7 -10
11 2 24 9 9 13 18 8 21 -11 6 -14 117 -3 130 5 6 25 58 45 116 40 112 66 170
78 170 4 0 12 16 19 34 7 19 16 33 20 31 4 -3 12 2 19 10 7 8 19 15 26 15 8 0
14 4 14 8 0 12 39 52 52 52 6 0 8 -9 3 -22 -4 -13 -7 -31 -6 -41 0 -9 -4 -15
-9 -12 -13 8 -15 -10 -10 -77 5 -59 6 -62 38 -72 19 -7 48 -31 68 -56 20 -25
41 -45 47 -45 6 0 29 28 51 61 23 34 49 64 60 67 14 4 17 12 12 30 -5 20 2 29
39 55 33 23 45 38 45 57 0 14 5 25 10 25 6 0 10 15 10 33 0 20 3 27 8 19 6 -9
15 -5 32 17 12 17 26 28 31 26 4 -3 11 0 14 6 4 5 13 8 21 5 8 -3 14 0 14 6 0
6 3 9 6 6 3 -4 17 0 31 7 15 8 30 12 35 9 4 -3 8 0 8 5 0 6 11 11 25 11 14 0
25 3 25 8 0 4 44 6 97 4 l97 -4 35 -37z m1110 -57 c27 -8 70 -30 95 -49 24
-18 57 -40 73 -48 43 -23 165 -126 191 -162 13 -18 30 -57 38 -87 13 -53 13
-58 -11 -109 -30 -65 -69 -114 -84 -105 -6 4 -11 0 -11 -8 0 -9 -4 -16 -9 -16
-5 0 -15 -17 -22 -37 -6 -21 -20 -49 -30 -62 -11 -13 -19 -28 -19 -33 0 -4
-20 -27 -44 -51 -73 -71 -74 -78 -8 -112 172 -90 283 -189 372 -334 34 -56 34
-56 35 -181 0 -103 -3 -131 -19 -160 -26 -50 -86 -101 -111 -95 -11 2 -29 5
-40 5 -30 0 -53 53 -60 143 -5 61 -14 92 -41 143 -59 113 -128 204 -155 204
-17 0 -44 40 -40 59 1 7 -2 10 -7 7 -6 -3 -12 -1 -14 5 -6 17 -77 19 -144 4
-122 -28 -148 -36 -191 -62 -40 -23 -43 -28 -38 -57 12 -67 14 -86 7 -82 -11
7 -8 -118 3 -126 6 -5 5 -8 -2 -8 -7 0 -10 -7 -7 -15 3 -8 -1 -21 -9 -30 -9
-8 -28 -54 -44 -102 -22 -69 -37 -96 -70 -130 -42 -42 -44 -43 -109 -43 -36 0
-74 4 -84 10 -14 7 -23 6 -34 -5 -8 -8 -20 -13 -28 -10 -21 8 -71 112 -65 135
3 11 1 20 -4 20 -5 0 -9 7 -9 15 0 8 -5 15 -12 15 -6 0 -8 3 -5 6 3 4 2 15 -3
25 -6 10 -12 49 -15 86 -3 37 -7 84 -11 104 -3 21 -1 40 4 43 6 3 8 18 6 34
-5 31 -5 32 1 92 3 25 7 86 10 135 6 133 14 197 26 212 6 7 8 13 4 13 -4 0 -1
8 6 17 12 14 12 15 0 9 -10 -7 -12 -3 -6 15 15 54 29 89 35 89 3 0 6 8 6 18 2
37 26 160 44 227 23 87 76 200 119 253 25 33 142 125 210 166 59 37 224 42
330 10z m69 -1735 c11 -8 44 -33 73 -56 30 -23 84 -66 121 -95 41 -32 68 -61
68 -72 0 -10 -18 -36 -39 -58 l-39 -39 -67 36 c-66 35 -127 45 -140 25 -4 -6
-14 -8 -24 -5 -12 3 -20 -4 -28 -26 -7 -17 -21 -33 -32 -36 -12 -3 -18 -10
-14 -16 3 -6 1 -7 -5 -3 -13 8 -54 -29 -44 -39 4 -3 -1 -3 -11 1 -10 3 -19 1
-22 -8 -3 -7 -26 -25 -51 -38 -27 -15 -47 -34 -51 -48 -3 -12 -13 -28 -22 -35
-29 -22 -51 -74 -51 -121 0 -41 5 -51 43 -88 23 -22 60 -50 82 -60 57 -27 167
-107 199 -145 33 -39 56 -93 56 -131 0 -16 -17 -62 -38 -103 -20 -41 -53 -108
-72 -149 -90 -199 -222 -320 -387 -355 -102 -22 -158 -20 -183 7 -11 12 -20
28 -20 35 0 13 78 93 91 93 8 0 51 38 118 103 44 43 76 100 66 117 -4 6 1 10
10 10 12 0 16 8 15 33 -2 36 8 77 19 77 10 0 6 83 -4 99 -4 7 -2 18 4 24 6 6
11 21 11 34 0 13 4 23 10 23 5 0 7 8 4 18 -5 16 -5 16 9 0 15 -18 37 -24 37
-10 0 4 -6 14 -12 21 -11 11 -10 12 0 6 11 -6 12 -3 4 11 -25 47 -106 110
-217 169 -86 46 -181 114 -249 180 -28 27 -54 48 -58 47 -5 -1 -8 12 -8 28 0
17 -5 30 -11 30 -7 0 -9 8 -4 23 8 27 8 32 1 77 -3 22 0 43 10 57 8 13 12 23
8 23 -4 0 12 20 35 45 22 24 41 49 41 55 0 7 8 9 19 5 13 -4 25 2 39 20 11 14
27 25 36 25 10 0 31 13 48 29 18 16 57 42 87 56 31 15 64 31 73 36 10 5 23 9
30 9 6 0 41 12 77 27 93 37 123 42 238 39 68 -2 108 -7 121 -17z m-1767 -183
c41 -14 101 -36 133 -50 l59 -26 -7 -53 c-3 -28 -11 -77 -16 -107 -4 -30 -9
-242 -9 -470 -1 -370 1 -420 16 -463 20 -55 41 -71 82 -62 41 9 59 58 66 175
1 25 8 58 14 73 6 16 8 33 5 38 -3 6 -2 18 2 27 4 9 8 26 10 37 1 11 5 30 8
42 2 13 1 25 -5 28 -16 10 -10 25 11 25 17 0 19 6 17 40 -1 22 -6 40 -11 40
-5 0 -2 7 5 17 11 12 14 56 14 182 0 107 7 209 18 286 24 160 32 188 66 224
24 26 36 31 73 30 41 0 101 -17 68 -18 -25 -1 9 -25 63 -45 26 -10 65 -32 87
-49 21 -18 51 -41 66 -51 26 -18 26 -21 20 -85 -4 -36 -9 -113 -13 -171 -3
-58 -9 -112 -14 -121 -4 -9 -9 -36 -10 -60 -1 -24 -6 -52 -11 -62 -5 -9 -18
-65 -28 -125 -11 -59 -29 -134 -39 -167 -10 -33 -23 -95 -28 -137 -22 -169
-102 -271 -282 -360 -151 -75 -245 -77 -391 -6 -77 37 -161 129 -198 218 -101
238 -105 262 -121 685 -7 170 -6 269 3 378 8 81 16 150 19 153 29 30 149 25
258 -10z"/>
<path d="M1920 3750 c0 -5 -6 -7 -14 -4 -8 3 -28 -1 -44 -10 -16 -8 -32 -13
-35 -9 -14 13 -191 -112 -182 -128 4 -5 -1 -6 -9 -3 -9 3 -16 1 -16 -5 0 -6
-9 -20 -20 -31 -11 -11 -20 -17 -20 -13 0 4 -9 -9 -20 -30 -11 -20 -29 -46
-40 -57 -11 -11 -20 -27 -20 -36 0 -8 -11 -30 -25 -48 -14 -18 -25 -42 -25
-54 0 -11 -4 -24 -10 -27 -5 -3 -10 -15 -10 -25 0 -10 -8 -24 -17 -29 -10 -6
-13 -11 -8 -11 6 0 4 -4 -4 -9 -8 -5 -15 -17 -16 -28 -1 -10 -14 -42 -29 -72
-25 -49 -35 -90 -50 -216 -2 -22 -8 -48 -11 -57 -4 -11 -3 -18 5 -18 6 0 9 -4
6 -9 -3 -4 -1 -23 5 -42 6 -19 11 -47 13 -63 1 -17 8 -32 14 -34 7 -2 12 -18
12 -35 0 -25 8 -38 35 -57 19 -14 35 -30 35 -36 0 -24 26 -64 45 -70 11 -4 23
-12 27 -18 9 -14 48 -17 48 -4 0 5 7 2 16 -7 12 -11 25 -14 52 -9 21 4 46 9
57 10 11 1 20 3 20 4 0 1 19 3 42 5 40 3 123 48 123 66 0 5 9 9 20 9 12 0 25
10 32 25 6 14 16 25 23 25 15 0 58 77 50 90 -3 5 -2 10 3 10 5 0 15 18 22 40
7 22 18 40 23 40 5 0 4 7 -3 15 -10 12 -9 19 2 37 15 23 18 35 36 132 5 26 15
52 22 56 10 6 8 9 -6 13 -18 5 -18 5 0 6 15 1 16 4 7 15 -9 11 -8 17 4 29 8 9
10 17 5 19 -6 2 -12 28 -14 58 -2 30 -5 55 -6 55 -3 0 -11 39 -16 75 -2 19 -7
53 -10 75 -6 45 -7 66 -3 80 2 6 -1 25 -5 44 -6 24 -4 36 5 42 10 6 11 9 2 9
-7 0 -12 10 -12 23 1 12 -2 42 -6 67 -4 25 -7 54 -7 64 1 30 -17 56 -38 56
-11 0 -20 5 -20 10 0 6 -9 10 -20 10 -11 0 -20 -4 -20 -10z"/>
<path d="M3161 3736 c-14 -15 -20 -30 -16 -37 5 -8 4 -10 -3 -5 -7 4 -14 -3
-18 -18 -3 -13 -15 -26 -26 -29 -11 -3 -17 -10 -13 -16 3 -6 1 -11 -5 -11 -7
0 -9 -8 -4 -22 6 -20 5 -21 -10 -9 -19 16 -22 1 -3 -18 10 -11 7 -12 -13 -7
-23 6 -23 6 -7 -7 18 -15 24 -33 7 -22 -5 3 -10 1 -10 -5 0 -6 -4 -8 -10 -5
-5 3 -10 1 -10 -5 0 -6 -4 -8 -10 -5 -5 3 -10 1 -10 -5 0 -16 -26 -40 -34 -32
-4 3 -4 -1 0 -11 3 -10 1 -17 -5 -17 -6 0 -11 -8 -11 -17 0 -10 -7 -31 -15
-47 -8 -15 -15 -37 -15 -47 0 -11 -5 -19 -11 -19 -5 0 -8 -4 -5 -9 4 -5 -5
-23 -19 -39 -21 -26 -50 -110 -40 -120 11 -11 66 45 239 243 96 109 146 205
146 278 0 84 -27 108 -69 63z"/>
<path d="M3101 3716 c-12 -13 -19 -26 -14 -29 4 -2 18 9 31 24 28 35 15 39
-17 5z"/>
<path d="M3057 3673 c-4 -3 -7 -11 -7 -17 0 -6 5 -5 12 2 6 6 9 14 7 17 -3 3
-9 2 -12 -2z"/>
<path d="M2952 3535 c-6 -14 -10 -25 -7 -25 7 0 35 32 35 41 0 18 -17 9 -28
-16z"/>
<path d="M3565 2466 c0 -13 3 -22 8 -19 4 2 7 13 7 24 0 10 -3 19 -7 19 -5 0
-8 -11 -8 -24z"/>
<path d="M2485 2415 c7 -75 15 -105 27 -105 5 0 6 10 2 23 -4 12 -14 49 -21
82 l-13 60 5 -60z"/>
<path d="M2755 2120 c-3 -5 -1 -10 4 -10 6 0 11 5 11 10 0 6 -2 10 -4 10 -3 0
-8 -4 -11 -10z"/>
<path d="M2725 2107 c-4 -10 -5 -21 -1 -24 10 -10 18 4 13 24 -4 17 -4 17 -12
0z"/>
<path d="M2955 1860 c3 -5 8 -10 11 -10 2 0 4 5 4 10 0 6 -5 10 -11 10 -5 0
-7 -4 -4 -10z"/>
<path d="M2925 1837 c-10 -8 -14 -17 -9 -20 6 -3 15 3 22 14 14 23 12 24 -13
6z"/>
<path d="M2896 1185 c7 -17 20 -20 28 -6 3 5 -1 12 -10 15 -22 9 -24 8 -18 -9z"/>
</g>
</svg>
